<?xml version="1.0" encoding="utf-8"?>
<!-- Generator: Adobe Illustrator 28.2.0, SVG Export Plug-In . SVG Version: 6.00 Build 0)  -->
<svg version="1.1" id="Layer_1" xmlns="http://www.w3.org/2000/svg" xmlns:xlink="http://www.w3.org/1999/xlink" x="0px" y="0px"
	 viewBox="0 0 1439.4 142.7" style="enable-background:new 0 0 1439.4 142.7;" xml:space="preserve">
<style type="text/css">
	.st0{fill:#1D1D1B;}
</style>
<path class="st0" d="M484.8,113.8H267.2c-18.2,0-33-14.8-33-33V33.6c0-18.2,14.8-33,33-33h217.6c18.2,0,33,14.8,33,33v47.2
	C517.8,99,503.1,113.8,484.8,113.8z M500.8,76.4V38.6c0-11.1-9-20-20-20H272.1c-11,0-20,8.9-20,20v37.8c0,11.1,9,20,20,20h208.7
	C491.8,96.4,500.8,87.4,500.8,76.4z"/>
<path class="st0" d="M0,142.3V39.6c0-21.5,17.5-39,39-39h71.7c15.9,0,28.8,12.9,28.8,28.8v12.4c0,6.1-2,11.9-5.3,16.6
	c11.7,6.8,19.8,19.4,19.8,34v10.9c0,21.5-17.5,39-39,39L0,142.3L0,142.3z M17.2,53.5h93.5c6.4,0,11.6-5.3,11.6-11.6V29.5
	c0-6.3-5.3-11.5-11.6-11.5H39c-11.9,0-21.8,9.7-21.8,21.7v12.2V53.5L17.2,53.5z M17.2,125H115c12,0,21.7-9.7,21.7-21.7V92.4
	c0-12.1-9.7-21.8-21.7-21.8H17.2V125L17.2,125z"/>
<path class="st0" d="M184.2,142.7V0.7h17.5v142H184.2L184.2,142.7z"/>
<path class="st0" d="M547.8,142.7V40.3c0-21.9,17.8-39.7,39.7-39.7h67.9c21.9,0,39.7,17.8,39.7,39.7v32.8
	c0,21.9-17.8,39.7-39.7,39.7h-90.1v29.8h-17.5L547.8,142.7L547.8,142.7z M677.5,73.2V40.4c0-12.2-9.9-22.1-22.1-22.1h-67.9
	c-12.2,0-22.2,9.9-22.2,22.1v55.1h90.1C667.5,95.4,677.5,85.5,677.5,73.2L677.5,73.2z"/>
<path class="st0" d="M753.9,142.7V17.9h-50.5V0.6h134.4v17.3h-66.6v124.8H753.9z"/>
<path class="st0" d="M1072.5,142.1V28.9c0-6.4-5.2-11.6-11.7-11.6h-21.1c-7.1,0-13.8,3.5-18,9.3l-34,49c-2.6,3.6-3.9,8-3.9,12.4
	v54.1h-17.2V88c0-4.5-1.4-8.8-3.9-12.4l-34-49c-4-5.8-10.7-9.3-18-9.3h-21.1c-6.4,0-11.7,5.2-11.7,11.6v113.2h-17.2V28.9
	c0-15.9,13-28.9,28.9-28.9h21.1c12.8,0,24.9,6.3,32.2,16.8l32.3,46.6l32.4-46.6c7.2-10.5,19.2-16.8,32.1-16.8h21.1
	c15.9,0,28.9,13,28.9,28.9v113.2H1072.5L1072.5,142.1z"/>
<path class="st0" d="M1159.1,142.1c-21.6,0-39.1-17.5-39.1-39.1V0h17.2v103c0,12,9.9,21.8,21.9,21.8h66.8c12,0,21.8-9.8,21.8-21.8V0
	h17.3v103c0,21.6-17.5,39.1-39.1,39.1L1159.1,142.1L1159.1,142.1z"/>
<path class="st0" d="M1298.2,141.6v-17.2h102.4c12,0,21.7-9.7,21.7-21.7v-3c0-12.1-9.7-21.8-21.7-21.8h-65.5
	c-21.5,0-38.9-17.4-38.9-38.9s17.4-38.9,38.9-38.9h102.2v17.3h-102.2c-12,0-21.8,9.7-21.8,21.7s9.8,21.8,21.8,21.8h65.5
	c21.4,0,38.8,17.5,38.8,38.9v3c0,21.5-17.5,38.9-38.8,38.9h-102.4V141.6z"/>
<path class="st0" d="M807.1,142.7v-101h17.2v101H807.1z"/>
</svg>
