<svg version="1.1" id="Layer_1" xmlns="http://www.w3.org/2000/svg" width="219" height="50" x="0" y="0" viewBox="0 0 219 50" xml:space="preserve"><style>.st0{fill:#00539b}</style><path class="st0" d="M16.63 19.24c-2.55 1.86-6.28 2.91-6.61 2.99.28-.14 3.35-1.62 4.71-2.96.65-.64 1.17-1.58 1.52-2.35-.16.14-.29.4-1.89 1.26-1.52.81-4.08 1.72-4.34 1.82.23-.12 2.04-1.14 3.15-2.38.66-.74 1.19-1.41 1.46-2.07-1.3 1.03-4.33 2.15-4.61 2.25.17-.11 1.3-.81 2.23-1.88.68-.79.75-1.3.85-1.71-1.42 1.13-2.88 1.35-3.08 1.37v-.01c.18-.12 1.41-.99 1.47-2.72-1.12 1.02-2.08.66-2.54.26-.45-.4-.44-1.26-.44-1.26V0h-1.5v1.1h-2V0h-1.5v1.1h-2V0H0v13.59s.02 3.86 3.57 6.78c2.48 2.04 6.45 3.98 6.45 3.98.33-.16 4.08-2.01 5.71-3.47 1.17-1.04 1.72-1.72 2.12-2.61-.34.32-.76.63-1.22.97z"/><path class="st0" d="M14.67 10.69V1.13H13.3v11.39s.04.82-.19 1.68c1.8-1.16 1.56-3.51 1.56-3.51z"/><path class="st0" d="M16.42 11.81V0h-1.38v13.51s.04.93-.41 2.03c1.79-1.44 1.79-3.73 1.79-3.73z"/><path class="st0" d="M18.17 12.57V1.13H16.8v13.15s-.12 1.8-.55 2.63c1.95-1.24 1.92-4.34 1.92-4.34z"/><path class="st0" d="M19.93 13.51V0h-1.38v15.46s-.07 1.39-.69 2.8c2.16-2.08 2.07-4.75 2.07-4.75zM12.92 9.85V0h-1.37v11.62s0 .88-.05 1.21c1.59-1.37 1.42-2.98 1.42-2.98z"/><g><path class="st0" d="M26.26 40.61h1.78c2.57 0 3.58 1.48 3.58 3.58 0 2.6-1.74 3.59-4.11 3.59h-1.25v-7.17zm.71 6.56h.59c2.03 0 3.36-.82 3.36-3.02 0-2.19-1.3-2.92-2.91-2.92h-1.04v5.94zM37.19 46.55c0 .4 0 .81.04 1.23h-.63v-.93h-.02c-.22.47-.61 1.06-1.69 1.06-1.29 0-1.79-.86-1.79-2.01v-3.35h.65v3.18c0 .99.35 1.62 1.24 1.62 1.18 0 1.55-1.04 1.55-1.91v-2.9h.65v4.01zM38.81 40.08h.65v4.61l2.34-2.15h.83l-2.56 2.32 2.87 2.92h-.89l-2.59-2.69v2.69h-.65v-7.7zM47.46 47.62c-.45.19-1.04.29-1.52.29-1.74 0-2.38-1.17-2.38-2.74 0-1.6.88-2.74 2.21-2.74 1.48 0 2.09 1.19 2.09 2.6v.33h-3.58c0 1.11.6 2 1.73 2 .47 0 1.16-.19 1.47-.39v.65zm-.32-2.83c0-.91-.37-1.82-1.34-1.82-.95 0-1.54.96-1.54 1.82h2.88zM56.64 45.28c0 2.12-1.55 2.63-2.6 2.63s-2.6-.51-2.6-2.63v-4.66h.71v4.66c0 1.17.65 2.01 1.89 2.01 1.24 0 1.89-.84 1.89-2.01v-4.66h.71v4.66zM58.28 43.78c0-.4 0-.81-.04-1.23h.63v.93h.02c.22-.47.61-1.06 1.69-1.06 1.29 0 1.79.86 1.79 2.01v3.35h-.65V44.6c0-.99-.35-1.62-1.24-1.62-1.18 0-1.55 1.04-1.55 1.91v2.9h-.65v-4.01zM64.63 41.15h-.65v-.86h.65v.86zm-.64 1.39h.65v5.24h-.65v-5.24zM68.09 47.78h-.76l-1.78-5.24h.71l1.45 4.53h.02l1.52-4.53h.68l-1.84 5.24zM74.34 47.62c-.45.19-1.04.29-1.52.29-1.74 0-2.38-1.17-2.38-2.74 0-1.6.88-2.74 2.21-2.74 1.48 0 2.08 1.19 2.08 2.6v.33h-3.58c0 1.11.6 2 1.73 2 .47 0 1.16-.19 1.47-.39v.65zm-.32-2.83c0-.91-.37-1.82-1.34-1.82-.96 0-1.54.96-1.54 1.82h2.88zM75.96 43.71c0-.58 0-.79-.04-1.17h.65v1.01h.02c.24-.59.68-1.13 1.35-1.13.15 0 .34.03.45.06v.68c-.13-.04-.31-.06-.47-.06-1.03 0-1.3 1.15-1.3 2.1v2.59h-.65v-4.08zM78.99 47.02c.39.2.86.33 1.37.33.62 0 1.16-.34 1.16-.93 0-1.24-2.52-1.05-2.52-2.57 0-1.04.84-1.43 1.71-1.43.28 0 .83.06 1.29.24l-.06.56c-.34-.15-.8-.25-1.16-.25-.67 0-1.13.21-1.13.87 0 .98 2.58.85 2.58 2.57 0 1.11-1.04 1.49-1.83 1.49-.5 0-1.01-.06-1.47-.25l.06-.63zM84.03 41.15h-.65v-.86h.65v.86zm-.65 1.39h.65v5.24h-.65v-5.24zM87.92 43.1h-1.19v3.39c0 .47.17.86.7.86.25 0 .41-.05.6-.12l.04.53c-.15.06-.47.14-.79.14-1.15 0-1.19-.79-1.19-1.75V43.1h-1.03v-.55h1.03v-1.26l.65-.23v1.49h1.19v.55zM90.64 48.56c-.24.72-.61 1.44-1.34 1.44-.24 0-.48-.03-.7-.08l.06-.55c.12.04.25.08.48.08.56 0 .74-.46.94-1.14l.13-.46-1.86-5.3h.71l1.47 4.37-.01-.01h.02l1.51-4.36h.68l-2.09 6.01zM96.12 46.87c.42.27.91.42 1.58.42.88 0 1.61-.45 1.61-1.47 0-1.41-3.29-1.58-3.29-3.46 0-1.15 1.01-1.87 2.27-1.87.35 0 .91.05 1.41.24l-.11.65c-.32-.17-.82-.27-1.3-.27-.74 0-1.55.31-1.55 1.23 0 1.44 3.29 1.45 3.29 3.54 0 1.45-1.24 2.02-2.35 2.02-.7 0-1.24-.14-1.62-.31l.06-.72zM104.79 43.24c-.35-.15-.77-.27-1.12-.27-1.26 0-1.97.91-1.97 2.19 0 1.19.72 2.19 1.9 2.19.41 0 .79-.09 1.18-.24l.06.61c-.44.15-.85.18-1.35.18-1.68 0-2.51-1.28-2.51-2.74 0-1.61 1.04-2.74 2.59-2.74.63 0 1.08.14 1.26.21l-.04.61zM105.94 40.08h.65v3.35h.02c.28-.58.86-1.01 1.63-1.01 1.41 0 1.79.94 1.79 2.23v3.13h-.65v-3.12c0-.9-.17-1.68-1.24-1.68-1.15 0-1.55 1.09-1.55 2v2.8h-.65v-7.7zM113.69 42.42c1.69 0 2.44 1.31 2.44 2.74 0 1.43-.75 2.74-2.44 2.74s-2.44-1.31-2.44-2.74c0-1.43.75-2.74 2.44-2.74zm0 4.93c1.13 0 1.74-.98 1.74-2.19s-.61-2.19-1.74-2.19-1.74.98-1.74 2.19c.01 1.21.61 2.19 1.74 2.19zM119.41 42.42c1.69 0 2.44 1.31 2.44 2.74 0 1.43-.75 2.74-2.44 2.74s-2.44-1.31-2.44-2.74c-.01-1.43.74-2.74 2.44-2.74zm0 4.93c1.13 0 1.74-.98 1.74-2.19s-.61-2.19-1.74-2.19-1.74.98-1.74 2.19.61 2.19 1.74 2.19zM123.07 40.08h.65v7.7h-.65v-7.7zM130 42.42c1.69 0 2.44 1.31 2.44 2.74 0 1.43-.75 2.74-2.44 2.74s-2.44-1.31-2.44-2.74c-.01-1.43.74-2.74 2.44-2.74zm0 4.93c1.13 0 1.74-.98 1.74-2.19s-.61-2.19-1.74-2.19-1.73.98-1.73 2.19c-.01 1.21.6 2.19 1.73 2.19zM134.11 43.1h-1.06v-.55h1.06v-.38c0-1.1.04-2.21 1.39-2.21.21 0 .48.03.61.1l-.04.56c-.13-.07-.33-.11-.51-.11-.88 0-.79.96-.79 1.58v.45h1.18v.55h-1.18v4.68h-.65V43.1zM139.76 40.61h1.1l2.62 6.31 2.63-6.31h1.02v7.17h-.71v-6.46h-.02l-2.61 6.46h-.61l-2.69-6.46h-.02v6.46h-.71v-7.17zM152.33 47.62c-.45.19-1.04.29-1.52.29-1.74 0-2.38-1.17-2.38-2.74 0-1.6.88-2.74 2.21-2.74 1.48 0 2.08 1.19 2.08 2.6v.33h-3.58c0 1.11.6 2 1.73 2 .47 0 1.16-.19 1.47-.39v.65zm-.32-2.83c0-.91-.37-1.82-1.34-1.82-.96 0-1.54.96-1.54 1.82h2.88zM158.1 47.78h-.65v-.83h-.02c-.35.67-.88.96-1.63.96-1.44 0-2.16-1.19-2.16-2.74 0-1.59.62-2.74 2.16-2.74 1.03 0 1.54.75 1.63 1.01h.02v-3.35h.65v7.69zm-2.2-.43c1.15 0 1.55-1.23 1.55-2.19s-.4-2.19-1.55-2.19c-1.23 0-1.55 1.17-1.55 2.19s.32 2.19 1.55 2.19zM160.31 41.15h-.65v-.86h.65v.86zm-.65 1.39h.65v5.24h-.65v-5.24zM165.35 43.24c-.35-.15-.77-.27-1.12-.27-1.26 0-1.97.91-1.97 2.19 0 1.19.72 2.19 1.9 2.19.41 0 .79-.09 1.18-.24l.06.61c-.44.15-.85.18-1.35.18-1.68 0-2.51-1.28-2.51-2.74 0-1.61 1.04-2.74 2.59-2.74.63 0 1.08.14 1.26.21l-.04.61zM167.15 41.15h-.65v-.86h.65v.86zm-.65 1.39h.65v5.24h-.65v-5.24zM168.78 43.78c0-.4 0-.81-.04-1.23h.63v.93h.02c.22-.47.61-1.06 1.69-1.06 1.29 0 1.79.86 1.79 2.01v3.35h-.65V44.6c0-.99-.35-1.62-1.24-1.62-1.18 0-1.55 1.04-1.55 1.91v2.9h-.65v-4.01zM178.01 47.62c-.45.19-1.04.29-1.52.29-1.74 0-2.38-1.17-2.38-2.74 0-1.6.88-2.74 2.21-2.74 1.48 0 2.09 1.19 2.09 2.6v.33h-3.58c0 1.11.6 2 1.73 2 .47 0 1.16-.19 1.47-.39v.65zm-.32-2.83c0-.91-.37-1.82-1.33-1.82-.96 0-1.54.96-1.54 1.82h2.87z"/></g><g><path class="st0" d="M26.62 1.07h3.35c3.36 0 6.04 2.08 6.04 5.57 0 3.8-2.31 5.77-6.04 5.77h-3.35V1.07zm1.63 9.91h1.71c2.79 0 4.34-1.35 4.34-4.27 0-2.65-1.8-4.21-4.14-4.21h-1.9v8.48zM43.84 12.07c-.58.21-1.25.54-2.61.54-2.94 0-4.29-1.79-4.29-4.48 0-2.45 1.54-4.19 3.88-4.19 2.76 0 3.65 2.01 3.65 4.68h-5.91c0 1.64 1.28 2.76 2.73 2.76 1.01 0 2.18-.52 2.55-.83v1.52zm-.99-4.6c0-1.27-.75-2.31-2.06-2.31-1.49 0-2.11 1.23-2.23 2.31h4.29zM45.71 4.13h1.46V5.3h.03c.41-.62 1.35-1.36 2.81-1.36 2.4 0 3.57 1.97 3.57 4.19 0 2.27-1.06 4.48-3.56 4.48-1.46 0-2.29-.57-2.76-1.33h-.03v4.55H45.7V4.13zm3.98 1.04c-1.66 0-2.45 1.58-2.45 3.12 0 1.38.71 3.09 2.44 3.09 1.64 0 2.32-1.84 2.29-3.13.02-1.51-.63-3.08-2.28-3.08zM55.62 4.71c.76-.45 1.67-.78 2.73-.78 2.37 0 3.33 1.17 3.33 3.43v3.43c0 .94.03 1.38.06 1.62h-1.43v-1.07h-.03c-.36.5-1.17 1.27-2.57 1.27-1.79 0-3.04-.78-3.04-2.58 0-2.08 2.27-2.73 3.85-2.73.6 0 1.02 0 1.62.03 0-1.43-.52-2.16-2.05-2.16-.86 0-1.79.32-2.4.84l-.07-1.3zm4.53 3.75c-.32 0-.65-.03-.97-.03-.83 0-2.87.13-2.87 1.59 0 .88.84 1.35 1.54 1.35 1.51 0 2.31-.94 2.31-2.18v-.73zM63.44 4.13h1.43v1.28h.03c.41-.86 1.28-1.48 2.16-1.48.45 0 .68.05 1.01.11V5.4c-.28-.11-.58-.15-.84-.15-1.36 0-2.26 1.3-2.26 3.38v3.77h-1.53V4.13zM74.16 5.36h-2.19v4.53c0 .96.58 1.48 1.28 1.48.47 0 .81-.15 1.04-.29v1.3c-.34.1-.81.23-1.3.23-1.58 0-2.55-.75-2.55-2.4V5.36h-1.87V4.13h1.87V2.21l1.53-.49v2.4h2.19v1.24zM76.06 4.13h1.43v1.2h.03c.58-.96 1.41-1.4 2.63-1.4.96 0 1.92.49 2.36 1.61.57-1.19 1.82-1.61 2.57-1.61 2.11 0 2.87 1.36 2.87 3.17v5.31h-1.53V7.47c0-1.02-.24-2.31-1.48-2.31-1.56 0-2.18 1.53-2.18 3.07v4.17h-1.53V7.47c0-1.02-.24-2.31-1.48-2.31-1.56 0-2.18 1.53-2.18 3.07v4.17h-1.53V4.13zM96.46 12.07c-.58.21-1.25.54-2.61.54-2.94 0-4.29-1.79-4.29-4.48 0-2.45 1.54-4.19 3.88-4.19 2.76 0 3.65 2.01 3.65 4.68h-5.91c0 1.64 1.28 2.76 2.73 2.76 1.01 0 2.18-.52 2.55-.83v1.52zm-.99-4.6c0-1.27-.75-2.31-2.06-2.31-1.49 0-2.11 1.23-2.23 2.31h4.29zM98.74 4.13h1.48v1.32h.03c.45-.94 1.56-1.51 2.71-1.51 2.14 0 3.1 1.33 3.1 3.56v4.92h-1.53v-4.3c0-1.93-.42-2.87-1.75-2.96-1.74 0-2.52 1.4-2.52 3.41v3.83h-1.53V4.13zM112.66 5.36h-2.19v4.53c0 .96.58 1.48 1.28 1.48.47 0 .81-.15 1.04-.29v1.3c-.34.1-.81.23-1.3.23-1.58 0-2.55-.75-2.55-2.4V5.36h-1.87V4.13h1.87V2.21l1.53-.49v2.4h2.19v1.24zM116.53 8.28c0-2.53 1.68-4.33 4.21-4.33 2.41 0 4.2 1.72 4.2 4.33 0 2.32-1.67 4.32-4.21 4.32-2.43 0-4.2-1.92-4.2-4.32zm6.79 0c0-1.64-.99-3.09-2.59-3.09-1.59 0-2.58 1.51-2.58 3.09 0 1.59.87 3.09 2.59 3.09 1.7 0 2.58-1.49 2.58-3.09zM127.61 12.41V5.38h-1.94V4.15h1.94v-.81c0-2.17.7-3.27 2.77-3.27.32 0 .63.03 1.02.1l-.06 1.23c-.18-.06-.49-.1-.73-.1-1.1 0-1.47.57-1.47 1.83v1.02h2.19v1.23h-2.19v7.03h-1.53z"/></g><g><path class="st0" d="M136.27 1.08h3.07c2.36 0 3.98.76 3.98 2.86 0 1.56-.91 2.34-2.34 2.7v.03c1.54.13 2.63 1.14 2.63 2.73 0 2.44-2.01 3.02-4.32 3.02h-3.02V1.08zm1.62 4.84h.89c1.58 0 2.91-.15 2.91-1.82 0-1.35-1.15-1.69-2.1-1.69h-1.71v3.51zm0 5.17h1.22c1.46 0 2.78-.31 2.78-1.84 0-1.75-1.54-2-2.94-2h-1.06v3.84zM147.15 2.29h-1.72V.56h1.72v1.73zm-1.62 1.85h1.53v8.28h-1.53V4.14zM153.11 3.94c2.52 0 4.21 1.82 4.21 4.34 0 2.37-1.72 4.34-4.21 4.34-2.5 0-4.22-1.97-4.22-4.34 0-2.52 1.69-4.34 4.22-4.34zm0 7.44c1.79 0 2.58-1.62 2.58-3.1 0-1.58-.96-3.1-2.58-3.1-1.64 0-2.6 1.53-2.6 3.1 0 1.48.8 3.1 2.6 3.1zM158.75 10.8c.6.39 1.46.58 1.9.58.7 0 1.56-.29 1.56-1.19 0-1.51-3.59-1.38-3.59-3.7 0-1.72 1.28-2.55 2.92-2.55.71 0 1.3.15 1.9.32l-.13 1.33c-.34-.21-1.25-.42-1.61-.42-.78 0-1.46.32-1.46 1.01 0 1.69 3.59 1.2 3.59 3.85 0 1.77-1.41 2.58-2.89 2.58-.78 0-1.57-.08-2.27-.45l.08-1.36zM169.92 5.37h-2.19V9.9c0 .96.58 1.48 1.28 1.48.47 0 .81-.15 1.04-.29v1.3c-.34.1-.81.23-1.3.23-1.58 0-2.55-.75-2.55-2.4V5.37h-1.87V4.14h1.87V2.22l1.53-.49v2.4h2.19v1.24zM171.82 4.72c.76-.45 1.67-.78 2.73-.78 2.37 0 3.33 1.17 3.33 3.43v3.43c0 .94.03 1.38.06 1.62h-1.43v-1.07h-.03c-.36.5-1.17 1.27-2.57 1.27-1.79 0-3.04-.78-3.04-2.58 0-2.08 2.27-2.73 3.85-2.73.6 0 1.02 0 1.62.03 0-1.43-.52-2.16-2.05-2.16-.86 0-1.79.32-2.4.84l-.07-1.3zm4.54 3.75c-.32 0-.65-.03-.97-.03-.83 0-2.88.13-2.88 1.59 0 .88.84 1.35 1.54 1.35 1.51 0 2.31-.94 2.31-2.18v-.73zM184.7 5.37h-2.19V9.9c0 .96.58 1.48 1.28 1.48.47 0 .81-.15 1.04-.29v1.3c-.34.1-.81.23-1.3.23-1.58 0-2.55-.75-2.55-2.4V5.37h-1.87V4.14h1.87V2.22l1.53-.49v2.4h2.19v1.24zM188.28 2.29h-1.72V.56h1.72v1.73zm-1.63 1.85h1.53v8.28h-1.53V4.14zM190.19 10.8c.6.39 1.46.58 1.9.58.7 0 1.56-.29 1.56-1.19 0-1.51-3.59-1.38-3.59-3.7 0-1.72 1.28-2.55 2.92-2.55.71 0 1.3.15 1.9.32l-.13 1.33c-.34-.21-1.25-.42-1.61-.42-.78 0-1.46.32-1.46 1.01 0 1.69 3.59 1.2 3.59 3.85 0 1.77-1.41 2.58-2.89 2.58-.78 0-1.57-.08-2.27-.45l.08-1.36zM201.37 5.37h-2.19V9.9c0 .96.58 1.48 1.28 1.48.47 0 .81-.15 1.04-.29v1.3c-.34.1-.81.23-1.3.23-1.58 0-2.55-.75-2.55-2.4V5.37h-1.87V4.14h1.87V2.22l1.53-.49v2.4h2.19v1.24zM204.94 2.29h-1.72V.56h1.72v1.73zm-1.62 1.85h1.53v8.28h-1.53V4.14zM212.49 5.53c-.58-.24-1.17-.36-1.66-.36-1.7 0-2.66 1.53-2.66 3.1 0 1.48.8 3.1 2.76 3.1.52 0 1.17-.16 1.64-.47l.11 1.36c-.63.29-1.36.34-1.92.34-2.5 0-4.22-1.97-4.22-4.34 0-2.52 1.69-4.34 4.22-4.34.62 0 1.41.15 1.85.32l-.12 1.29zM213.66 10.8c.6.39 1.46.58 1.9.58.7 0 1.56-.29 1.56-1.19 0-1.51-3.59-1.38-3.59-3.7 0-1.72 1.28-2.55 2.92-2.55.71 0 1.3.15 1.9.32l-.13 1.33c-.34-.21-1.25-.42-1.61-.42-.78 0-1.46.32-1.46 1.01 0 1.69 3.59 1.2 3.59 3.85 0 1.77-1.41 2.58-2.89 2.58-.78 0-1.58-.08-2.27-.45l.08-1.36z"/></g><g><path class="st0" d="M35.22 23.89c-.15 1.84-.65 2.89-1.3 3.88l1.98 2.24h-2.03l-.93-1.1c-.81.93-1.8 1.3-3.25 1.3-2.24 0-3.65-1.27-3.65-3.17 0-1.72 1.01-2.7 2.53-3.31-.6-.73-1.17-1.49-1.17-2.58 0-1.82 1.33-2.66 2.96-2.66 1.48 0 2.81.78 2.81 2.57 0 1.45-1.28 2.42-2.49 2.96l2.31 2.63c.44-.7.62-1.45.7-2.74h1.53zm-5.23 5.09c1.06 0 1.74-.68 2.1-1.09l-2.73-3.2c-.86.58-1.59 1.12-1.59 2.24-.01 1.25 1.05 2.05 2.22 2.05zm-.05-5.88c.68-.32 1.71-1.02 1.71-1.98 0-1.04-.57-1.4-1.35-1.4-.75 0-1.36.49-1.36 1.46-.01.76.51 1.38 1 1.92zM40.9 18.68h3.07c2.36 0 3.98.76 3.98 2.86 0 1.56-.91 2.34-2.34 2.7v.03c1.54.13 2.63 1.14 2.63 2.73 0 2.44-2.01 3.02-4.32 3.02H40.9V18.68zm1.62 4.84h.89c1.58 0 2.91-.15 2.91-1.82 0-1.35-1.15-1.69-2.1-1.69h-1.71v3.51zm0 5.17h1.22c1.46 0 2.78-.31 2.78-1.84 0-1.75-1.54-2-2.94-2h-1.06v3.84zM51.78 19.88h-1.72v-1.72h1.72v1.72zm-1.62 1.85h1.53v8.28h-1.53v-8.28zM57.74 21.54c2.52 0 4.21 1.82 4.21 4.34 0 2.37-1.72 4.34-4.21 4.34-2.5 0-4.22-1.97-4.22-4.34 0-2.52 1.69-4.34 4.22-4.34zm0 7.44c1.79 0 2.58-1.62 2.58-3.1 0-1.58-.96-3.1-2.58-3.1-1.64 0-2.6 1.53-2.6 3.1 0 1.47.8 3.1 2.6 3.1zM65.41 19.88h-1.72v-1.72h1.72v1.72zm-1.62 1.85h1.53v8.28h-1.53v-8.28zM67.7 21.73h1.48v1.32h.03c.45-.94 1.56-1.51 2.71-1.51 2.14 0 3.1 1.33 3.1 3.56v4.92H73.5v-4.29c0-1.93-.42-2.87-1.75-2.96-1.74 0-2.52 1.4-2.52 3.41v3.83H67.7v-8.28zM78.11 22.97h-1.95v-1.23h1.95v-.76c0-2.01.52-3.33 2.78-3.33.39 0 .71.05 1.02.1l-.07 1.23c-.18-.06-.47-.1-.73-.1-1.32 0-1.48.84-1.48 1.97v.89h2.19v1.23h-2.19v7.05H78.1v-7.05zM86.6 21.54c2.52 0 4.21 1.82 4.21 4.34 0 2.37-1.72 4.34-4.21 4.34-2.5 0-4.22-1.97-4.22-4.34 0-2.52 1.69-4.34 4.22-4.34zm0 7.44c1.79 0 2.58-1.62 2.58-3.1 0-1.58-.96-3.1-2.58-3.1-1.64 0-2.6 1.53-2.6 3.1 0 1.47.8 3.1 2.6 3.1zM92.45 21.73h1.43v1.28h.03c.41-.86 1.28-1.48 2.16-1.48.45 0 .68.05 1.01.11V23c-.28-.11-.58-.15-.84-.15-1.36 0-2.26 1.3-2.26 3.38V30h-1.53v-8.27zM98.35 21.73h1.43v1.2h.03c.58-.96 1.41-1.4 2.63-1.4.96 0 1.92.49 2.35 1.61.57-1.19 1.82-1.61 2.57-1.61 2.11 0 2.88 1.36 2.88 3.17v5.31h-1.53v-4.94c0-1.02-.24-2.31-1.48-2.31-1.56 0-2.18 1.53-2.18 3.07V30h-1.53v-4.94c0-1.02-.24-2.31-1.48-2.31-1.56 0-2.18 1.53-2.18 3.07v4.17h-1.53v-8.26zM112.38 22.32c.76-.45 1.67-.78 2.73-.78 2.37 0 3.33 1.17 3.33 3.43v3.43c0 .94.03 1.38.06 1.62h-1.43v-1.07h-.03c-.36.5-1.17 1.27-2.57 1.27-1.79 0-3.04-.78-3.04-2.58 0-2.08 2.27-2.73 3.85-2.73.6 0 1.02 0 1.62.03 0-1.43-.52-2.16-2.05-2.16-.86 0-1.79.32-2.4.84l-.07-1.3zm4.53 3.75c-.32 0-.65-.03-.97-.03-.83 0-2.87.13-2.87 1.59 0 .88.84 1.35 1.54 1.35 1.51 0 2.31-.94 2.31-2.18v-.73zM125.02 22.97h-2.19v4.53c0 .96.58 1.48 1.28 1.48.47 0 .81-.15 1.04-.29v1.3c-.34.1-.81.23-1.3.23-1.58 0-2.55-.75-2.55-2.4v-4.84h-1.87v-1.23h1.87v-1.92l1.53-.49v2.4h2.19v1.23zM128.59 19.88h-1.72v-1.72h1.72v1.72zm-1.62 1.85h1.53v8.28h-1.53v-8.28zM136.14 23.13c-.58-.24-1.17-.36-1.66-.36-1.71 0-2.66 1.53-2.66 3.1 0 1.48.8 3.1 2.76 3.1.52 0 1.17-.16 1.64-.47l.11 1.36c-.63.29-1.36.34-1.92.34-2.5 0-4.22-1.97-4.22-4.34 0-2.52 1.69-4.34 4.22-4.34.62 0 1.41.15 1.85.32l-.12 1.29zM137.31 28.39c.6.39 1.46.58 1.9.58.7 0 1.56-.29 1.56-1.19 0-1.51-3.59-1.38-3.59-3.7 0-1.72 1.28-2.55 2.92-2.55.71 0 1.3.15 1.9.32l-.13 1.33c-.34-.21-1.25-.42-1.61-.42-.78 0-1.46.32-1.46 1.01 0 1.69 3.59 1.2 3.59 3.85 0 1.77-1.41 2.58-2.89 2.58-.78 0-1.58-.08-2.27-.45l.08-1.36z"/></g></svg>